<?xml version="1.0"?>
<svg version="1.1" xmlns="http://www.w3.org/2000/svg" width="270" height="55" style=""><path fill="#348bc9" d="M27,28.612c0,3.336-2.712,5.136-5.832,5.136c-1.44,0-3.144-0.264-4.584-0.768c-0.312-0.12-0.408-0.264-0.408-0.456c0-0.096,0-0.192,0.048-0.312l0.504-1.56c0.072-0.24,0.192-0.384,0.432-0.384c0.096,0,0.216,0.024,0.36,0.072c1.128,0.408,2.376,0.72,3.576,0.72c1.296,0,2.76-0.624,2.76-2.136c0-1.104-0.816-1.704-1.752-2.16l-3.12-1.56c-1.704-0.84-2.832-2.256-2.832-4.128c0-2.928,2.88-4.536,5.544-4.536c1.584,0,2.904,0.24,4.296,0.84c0.312,0.144,0.48,0.288,0.48,0.48c0,0.096-0.024,0.192-0.072,0.312l-0.576,1.464c-0.096,0.264-0.24,0.36-0.408,0.36c-0.12,0-0.24-0.048-0.384-0.096c-0.984-0.408-2.208-0.744-3.168-0.744c-1.128,0-2.424,0.48-2.424,1.824c0,0.984,0.912,1.56,1.704,1.944l2.664,1.296c1.896,0.912,3.192,2.184,3.192,4.392z M41.244,32.788c0,0.504-0.144,0.672-0.624,0.672l-1.536,0c-0.312,0-0.552-0.168-0.576-0.48l-0.024-0.6c-1.104,0.888-2.424,1.368-3.816,1.368c-2.688,0-3.792-1.704-3.792-4.296l0-7.08c0-0.408,0.24-0.552,0.624-0.552l1.68,0c0.384,0,0.6,0.12,0.6,0.552l0,6.576c0,1.32,0.336,2.232,1.776,2.232c0.912,0,2.064-0.504,2.784-1.152l0-7.656c0-0.408,0.216-0.552,0.6-0.552l1.704,0c0.384,0,0.6,0.12,0.6,0.552l0,10.416z M56.64,27.652c0,3.312-1.704,6.096-5.28,6.096c-1.08,0-2.376-0.624-3.048-1.368l-0.096,0.792c-0.024,0.216-0.216,0.288-0.528,0.288l-1.44,0c-0.408,0-0.576-0.192-0.576-0.6l0-15.648c0-0.384,0.096-0.6,0.48-0.648l1.776-0.24c0.096-0.024,0.168-0.024,0.24-0.024c0.24,0,0.408,0.096,0.408,0.48l0,5.904c0.768-0.672,1.92-1.176,3.168-1.176c1.32,0,2.304,0.432,3.072,1.128c1.272,1.128,1.824,3,1.824,5.016z M53.64,27.676c0-1.944-0.6-3.72-2.592-3.72c-0.888,0-1.824,0.48-2.472,1.08l0,5.136c0.576,0.648,1.464,1.176,2.352,1.176c2.088,0,2.712-1.8,2.712-3.672z M70.908,32.98c0,0.36-0.072,0.48-0.384,0.48l-2.112,0c-0.336,0-0.408-0.096-0.408-0.48l0-6.672c0-1.296-0.36-2.256-1.8-2.256c-0.936,0-2.136,0.504-2.88,1.152l0,7.776c0,0.36-0.096,0.48-0.456,0.48l-2.064,0c-0.288,0-0.384-0.12-0.384-0.432l0-15.864c0-0.432,0.192-0.552,0.528-0.6l1.656-0.216c0.096-0.024,0.216-0.024,0.312-0.024c0.264,0,0.408,0.12,0.408,0.456l0,6.024c1.008-0.84,2.52-1.296,3.792-1.296c2.688,0,3.792,1.704,3.792,4.296l0,7.176z M86.664,33.004c0,0.288-0.192,0.456-0.48,0.456l-1.152,0c-1.248,0-1.8-0.6-1.968-1.416l-0.048,0c-0.6,0.888-2.16,1.704-3.48,1.704c-3.384,0-4.92-2.784-4.92-5.904c0-4.152,2.496-6.336,5.184-6.336c1.272,0,2.472,0.576,3.072,1.392l0.048-0.648c0.024-0.264,0.216-0.432,0.504-0.432l1.68,0c0.312,0,0.504,0.168,0.504,0.528l0,8.328c0,0.336,0.048,0.576,0.144,0.696c0.072,0.072,0.168,0.096,0.288,0.096l0.192,0c0.288,0,0.432,0.096,0.432,0.408l0,1.128z M82.704,29.74l0-4.632c-0.48-0.696-1.464-1.224-2.376-1.224c-1.464,0-2.712,1.248-2.712,3.768c0,2.016,0.768,3.72,2.544,3.72c1.176,0,2.184-0.888,2.544-1.632z M100.62,32.836c0,0.408-0.144,0.624-0.576,0.624l-1.728,0c-0.432,0-0.576-0.216-0.576-0.624l0-6.528c0-1.32-0.36-2.256-1.824-2.256c-0.936,0-2.088,0.504-2.832,1.152l0,7.656c0,0.408-0.168,0.6-0.576,0.6l-1.752,0c-0.36,0-0.576-0.192-0.576-0.576l0-10.464c0-0.384,0.168-0.6,0.6-0.6l1.56,0c0.336,0,0.552,0.096,0.576,0.456l0.024,0.624c1.104-0.888,2.496-1.392,3.888-1.392c2.688,0,3.792,1.68,3.792,4.296l0,7.032z M114.792,33.172c0,0.216-0.216,0.288-0.456,0.288l-2.064,0c-0.432,0-0.72-0.12-0.96-0.504l-3.072-5.04l-0.264,0.24l0,3.336l0,1.368c0,0.408-0.168,0.6-0.552,0.6l-1.8,0c-0.36,0-0.552-0.216-0.552-0.576l0-15.744c0-0.384,0.144-0.528,0.504-0.576l1.752-0.24c0.072,0,0.12-0.024,0.192-0.024c0.288,0,0.456,0.144,0.456,0.552l0,4.032l0,5.592l0.048,0l3.144-4.32c0.192-0.264,0.336-0.336,0.648-0.336l2.136,0c0.192,0,0.312,0.096,0.312,0.24c0,0.072-0.024,0.168-0.096,0.264l-3.432,4.32l3.888,6.072c0.096,0.144,0.168,0.312,0.168,0.456z M129.42,33.004c0,0.288-0.192,0.456-0.48,0.456l-1.152,0c-1.248,0-1.8-0.6-1.968-1.416l-0.048,0c-0.6,0.888-2.16,1.704-3.48,1.704c-3.384,0-4.92-2.784-4.92-5.904c0-4.152,2.496-6.336,5.184-6.336c1.272,0,2.472,0.576,3.072,1.392l0.048-0.648c0.024-0.264,0.216-0.432,0.504-0.432l1.68,0c0.312,0,0.504,0.168,0.504,0.528l0,8.328c0,0.336,0.048,0.576,0.144,0.696c0.072,0.072,0.168,0.096,0.288,0.096l0.192,0c0.288,0,0.432,0.096,0.432,0.408l0,1.128z M125.46,29.74l0-4.632c-0.48-0.696-1.464-1.224-2.376-1.224c-1.464,0-2.712,1.248-2.712,3.768c0,2.016,0.768,3.72,2.544,3.72c1.176,0,2.184-0.888,2.544-1.632z M139.512,21.916c0,0.072,0,0.144-0.024,0.216l-0.264,1.704c-0.024,0.216-0.144,0.312-0.336,0.312l-0.096,0c-0.192-0.048-0.432-0.072-0.648-0.072c-0.816,0-1.704,0.432-2.304,1.152l0,7.632c0,0.384-0.168,0.6-0.576,0.6l-1.752,0c-0.384,0-0.576-0.192-0.576-0.6l0-7.488l0-2.952c0-0.48,0.24-0.6,0.6-0.6l1.536,0c0.384,0,0.6,0.12,0.6,0.456l0.024,0.768c0.744-0.936,1.56-1.536,2.904-1.536c0.192,0,0.456,0.048,0.672,0.096c0.168,0.048,0.24,0.12,0.24,0.312z"/><path fill="#e9b949" d="M158.132,28.612c0,3.336-2.712,5.136-5.832,5.136c-1.44,0-3.144-0.264-4.584-0.768c-0.312-0.12-0.408-0.264-0.408-0.456c0-0.096,0-0.192,0.048-0.312l0.504-1.56c0.072-0.24,0.192-0.384,0.432-0.384c0.096,0,0.216,0.024,0.36,0.072c1.128,0.408,2.376,0.72,3.576,0.72c1.296,0,2.76-0.624,2.76-2.136c0-1.104-0.816-1.704-1.752-2.16l-3.12-1.56c-1.704-0.84-2.832-2.256-2.832-4.128c0-2.928,2.88-4.536,5.544-4.536c1.584,0,2.904,0.24,4.296,0.84c0.312,0.144,0.48,0.288,0.48,0.48c0,0.096-0.024,0.192-0.072,0.312l-0.576,1.464c-0.096,0.264-0.24,0.36-0.408,0.36c-0.12,0-0.24-0.048-0.384-0.096c-0.984-0.408-2.208-0.744-3.168-0.744c-1.128,0-2.424,0.48-2.424,1.824c0,0.984,0.912,1.56,1.704,1.944l2.664,1.296c1.896,0.912,3.192,2.184,3.192,4.392z M173.336,33.004c0,0.288-0.192,0.456-0.48,0.456l-1.152,0c-1.248,0-1.8-0.6-1.968-1.416l-0.048,0c-0.6,0.888-2.16,1.704-3.48,1.704c-3.384,0-4.92-2.784-4.92-5.904c0-4.152,2.496-6.336,5.184-6.336c1.272,0,2.472,0.576,3.072,1.392l0.048-0.648c0.024-0.264,0.216-0.432,0.504-0.432l1.68,0c0.312,0,0.504,0.168,0.504,0.528l0,8.328c0,0.336,0.048,0.576,0.144,0.696c0.072,0.072,0.168,0.096,0.288,0.096l0.192,0c0.288,0,0.432,0.096,0.432,0.408l0,1.128z M169.376,29.74l0-4.632c-0.48-0.696-1.464-1.224-2.376-1.224c-1.464,0-2.712,1.248-2.712,3.768c0,2.016,0.768,3.72,2.544,3.72c1.176,0,2.184-0.888,2.544-1.632z M187.34,32.98c0,0.36-0.072,0.48-0.384,0.48l-2.112,0c-0.336,0-0.408-0.096-0.408-0.48l0-6.672c0-1.296-0.36-2.256-1.8-2.256c-0.936,0-2.136,0.504-2.88,1.152l0,7.776c0,0.36-0.096,0.48-0.456,0.48l-2.064,0c-0.288,0-0.384-0.12-0.384-0.432l0-15.864c0-0.432,0.192-0.552,0.528-0.6l1.656-0.216c0.096-0.024,0.216-0.024,0.312-0.024c0.264,0,0.408,0.12,0.408,0.456l0,6.024c1.008-0.84,2.52-1.296,3.792-1.296c2.688,0,3.792,1.704,3.792,4.296l0,7.176z M202.664,27.628c0,3.456-2.112,6.12-5.856,6.12c-3.912,0-5.712-2.64-5.712-6.144c0-3.456,2.112-6.096,5.856-6.096c3.912,0,5.712,2.592,5.712,6.12z M199.664,27.628c0-1.968-0.624-3.84-2.736-3.84c-2.136,0-2.832,1.848-2.832,3.768c0,1.968,0.6,3.912,2.736,3.912c2.112,0,2.832-1.872,2.832-3.84z M217.292,27.628c0,3.456-2.112,6.12-5.856,6.12c-3.912,0-5.712-2.64-5.712-6.144c0-3.456,2.112-6.096,5.856-6.096c3.912,0,5.712,2.592,5.712,6.12z M214.292,27.628c0-1.968-0.624-3.84-2.736-3.84c-2.136,0-2.832,1.848-2.832,3.768c0,1.968,0.6,3.912,2.736,3.912c2.112,0,2.832-1.872,2.832-3.84z"/></svg>
